<!-- Generated by IcoMoon.io -->
<svg version="1.1" xmlns="http://www.w3.org/2000/svg" width="59" height="32" viewBox="0 0 59 32">
<title>customer1</title>
<path fill="#8e8f99" d="M22.911 5.126c0.609 0.586 1.486 1.432 1.949 1.881l0.842 0.815-7.379 0.003v18.522h19.411l0.026-3.517 0.026-3.518 3.912 3.707v-18.958h-19.894l1.107 1.065zM37.539 13.389v5.366l-0.267-0.24c-0.146-0.132-2.654-2.509-5.571-5.282s-5.347-5.080-5.398-5.126c-0.052-0.046 2.455-0.083 5.571-0.083h5.665v5.366zM22.286 16.987v5.794h11.687v0.792h-12.579v-12.381h0.891v5.794zM27.687 28.857c-0.147 0.107-0.17 0.211-0.118 0.533 0.047 0.294 0.025 0.433-0.084 0.523-0.2 0.166-0.187 0.527 0.025 0.719 0.125 0.113 0.36 0.154 0.842 0.147 0.6-0.009 0.655-0.026 0.532-0.166-0.053-0.058-0.085-0.135-0.085-0.22 0-0.049 0.011-0.095 0.030-0.137l-0.001 0.002c0.123-0.304 0.108-0.446-0.048-0.446-0.078 0-0.17 0.090-0.205 0.2-0.062 0.197-0.067 0.196-0.247-0.025-0.179-0.219-0.179-0.23 0.007-0.429 0.231-0.248 0.243-0.472 0.035-0.68-0.191-0.191-0.441-0.199-0.683-0.022zM30.345 28.836c-0.461 0.231-0.595 1.239-0.227 1.707 0.27 0.343 0.877 0.366 1.178 0.044 0.221-0.237 0.266-0.477 0.089-0.477-0.062 0-0.215 0.111-0.341 0.247-0.438 0.473-0.918-0.031-0.774-0.813 0.033-0.175 0.121-0.37 0.196-0.432 0.177-0.147 0.635-0.033 0.635 0.158 0 0.081 0.089 0.147 0.198 0.147 0.244 0 0.251-0.113 0.025-0.385-0.207-0.249-0.685-0.344-0.979-0.196zM32.235 28.836c-0.309 0.15-0.458 0.459-0.458 0.954 0 0.619 0.261 0.955 0.773 0.993 0.306 0.023 0.437-0.021 0.613-0.209 0.598-0.637 0.185-1.89-0.608-1.845-0.065 0.004-0.209 0.051-0.32 0.106zM23.078 28.857c0 0.018 0.133 0.275 0.295 0.57 0.195 0.355 0.295 0.678 0.297 0.957 0.001 0.354 0.033 0.421 0.199 0.421 0.164 0 0.198-0.066 0.198-0.381 0-0.236 0.112-0.583 0.295-0.916 0.348-0.631 0.357-0.685 0.116-0.685-0.118 0-0.247 0.141-0.362 0.396-0.098 0.218-0.21 0.397-0.248 0.397s-0.149-0.178-0.247-0.397c-0.115-0.255-0.244-0.396-0.362-0.396-0.101 0-0.183 0.015-0.183 0.034zM25.081 29.59c-0.445 1.169-0.455 1.214-0.274 1.214 0.087 0 0.208-0.111 0.27-0.248 0.091-0.201 0.183-0.247 0.491-0.247 0.321 0 0.387 0.038 0.44 0.247 0.041 0.161 0.132 0.248 0.261 0.248 0.117 0 0.179-0.051 0.153-0.124-0.82-2.236-0.884-2.288-1.341-1.090zM28.197 29.179c0.070 0.183-0.17 0.373-0.302 0.24-0.108-0.108-0.009-0.398 0.136-0.398 0.058 0 0.133 0.071 0.166 0.158zM32.901 29.185c0.203 0.183 0.247 0.815 0.079 1.13-0.16 0.299-0.669 0.259-0.791-0.062-0.141-0.37-0.118-0.76 0.058-1.011 0.183-0.262 0.407-0.281 0.655-0.056zM25.725 29.659c0.121 0.391 0.087 0.451-0.247 0.451-0.181 0-0.226-0.040-0.181-0.158 0.033-0.087 0.087-0.265 0.121-0.396 0.083-0.331 0.185-0.298 0.307 0.103zM28.171 30.535c-0.167 0.095-0.537-0.085-0.537-0.26 0-0.069 0.054-0.179 0.119-0.245 0.094-0.093 0.167-0.059 0.338 0.154 0.178 0.223 0.193 0.287 0.079 0.351z"></path>
</svg>
